PathFileType	4	(X/Y/Z)	c:/Users/goper/Files/vsCode/490R/osim_files/A03/A03_Fast_03.trc
DataRate	CameraRate	NumFrames	NumMarkers	Units                	OrigDataRate	OrigDataStartFrame	OrigNumFrames
250.00	250.00	7	36	mm	250.0	912	2431
                Frame#	Time	LPSIS			LASIS			LTH1			LTH2			LTH3			LTH4			LLFE			LMFE			LSH1			LSH2			LSH3			LSH4			LLMAL			LMMAL			LCAL			LMTP5			LTOE			LMTP1			RPSIS			RASIS			RTH1			RTH2			RTH3			RTH4			RLFE			RMFE			RSH1			RSH2			RSH3			RSH4			RLMAL			RMMAL			RCAL			RMTP1			RTOE			RMTP5		
		X1	Y1	Z1	X2	Y2	Z2	X3	Y3	Z3	X4	Y4	Z4	X5	Y5	Z5	X6	Y6	Z6	X7	Y7	Z7	X8	Y8	Z8	X9	Y9	Z9	X10	Y10	Z10	X11	Y11	Z11	X12	Y12	Z12	X13	Y13	Z13	X14	Y14	Z14	X15	Y15	Z15	X16	Y16	Z16	X17	Y17	Z17	X18	Y18	Z18	X19	Y19	Z19	X20	Y20	Z20	X21	Y21	Z21	X22	Y22	Z22	X23	Y23	Z23	X24	Y24	Z24	X25	Y25	Z25	X26	Y26	Z26	X27	Y27	Z27	X28	Y28	Z28	X29	Y29	Z29	X30	Y30	Z30	X31	Y31	Z31	X32	Y32	Z32	X33	Y33	Z33	X34	Y34	Z34	X35	Y35	Z35	X36	Y36	Z36

912	3.64400	798.38873	1026.82361	329.50479	545.18469	939.17834	410.78000	483.67041	610.57001	447.62997	458.57559	576.28943	442.03113	436.94437	641.68445	422.40485	419.01950	601.12115	418.58975	462.08752	531.33478	431.61533	443.12869	535.19720	275.56516	469.63007	435.49420	429.36951	450.32501	391.68863	427.81354	411.12033	453.90912	423.88342	402.38693	407.01941	418.16962	325.95926	95.76199	394.37717	319.15231	104.92525	294.82739	391.86560	73.14656	341.82864	168.98688	67.01250	400.62308	148.50366	104.41835	331.07126	175.79163	77.63220	287.04572	809.39813	1042.38049	248.96135	601.73553	926.42609	112.02909	795.27942	591.80414	84.12106	804.01575	549.45868	89.13749	736.27606	572.87628	77.34900	753.00470	533.05109	82.79115	792.71576	506.74860	100.98154	733.26721	492.51367	208.51527	871.97620	471.47107	112.75250	896.79041	436.86826	103.40062	822.87897	432.46542	98.41407	856.16425	399.04623	94.79982	1039.85352	155.34372	162.94380	1004.82794	133.61403	239.48958	1102.72766	120.17385	224.20114	902.35669	46.60294	259.84100	878.51361	69.79207	208.02904	915.97809	42.63460	140.30292
913	3.64800	792.18909	1026.75073	329.73254	0.00000	0.00000	0.00000	478.28506	610.25861	447.86606	453.73074	575.99506	442.46179	431.15872	641.07532	423.03745	413.52298	600.41107	419.21326	456.47809	531.46375	432.00916	437.47247	535.27734	275.97498	464.82642	435.59180	429.65137	446.00531	391.70209	428.13696	406.21228	453.57648	424.24875	397.96750	406.59555	418.57303	324.18372	95.05148	394.26212	317.33942	104.32980	295.21347	390.67068	73.38178	341.99225	167.69676	63.71815	400.59839	147.07503	101.05205	330.76718	174.32538	74.60568	287.04016	803.10028	1041.77686	249.05501	595.79535	925.99042	111.88038	789.09015	591.69525	83.46726	797.94061	549.46613	88.20193	730.15436	572.54138	76.46158	747.01105	532.77386	81.68125	786.75769	506.60648	99.93465	727.29083	491.85999	207.30899	866.30347	472.07635	111.90445	891.86688	437.84003	102.60804	817.63422	432.58847	97.46097	851.20325	399.48505	93.94801	1036.63159	156.91219	162.52452	1002.28192	135.82062	239.20277	1100.76367	123.79048	224.27055	901.95282	46.37160	260.03543	877.77252	69.54137	208.25311	915.73846	42.87016	140.59564
914	3.65200	786.08820	1026.80103	329.84085	0.00000	0.00000	0.00000	472.70267	610.08545	448.23923	448.01755	575.49579	442.80060	425.21439	640.60803	423.63852	408.28000	599.93951	420.01291	450.81857	531.75763	432.54550	431.75952	535.51801	276.44843	460.04611	435.89792	430.04370	441.67712	391.91177	428.50995	401.37653	453.45435	424.66861	393.54056	406.34152	418.91702	322.59341	94.39150	394.10886	315.82071	103.80435	295.56165	389.63736	73.60353	342.12668	166.64331	61.00720	400.54828	145.06764	97.99681	331.05591	173.12076	72.01585	286.96646	796.85229	1041.23938	249.06360	589.73914	925.56409	111.90948	782.59833	591.49744	82.71532	791.30121	549.24561	87.28648	725.58655	574.24200	73.46628	740.70862	532.57251	80.47560	780.41302	506.40222	98.79552	720.86401	491.34805	206.05045	860.22607	472.69720	110.93394	885.81519	438.49072	101.79182	812.00690	432.69553	96.45303	846.96497	401.16602	91.32141	1034.27991	160.25514	162.39883	999.14044	138.09193	238.90950	1098.29517	127.44083	224.20384	901.46686	46.12971	260.27020	876.94586	69.26059	208.44974	915.40405	43.09548	140.93286
915	3.65600	780.08746	1026.97107	329.82486	524.96979	938.12323	409.25125	466.31210	609.56549	447.70877	442.46335	575.38702	443.28705	419.24792	640.39771	424.12430	402.22455	599.57068	420.43384	445.03421	532.28430	433.10959	426.19131	535.89673	276.95361	455.20047	436.35806	430.45001	437.39822	392.34677	428.92358	396.49161	453.45688	425.17380	388.85809	406.25269	419.41260	321.33359	93.88583	394.03357	314.57538	103.33642	295.75452	388.78848	73.78310	342.18219	165.78354	58.66977	400.41998	144.70488	95.95869	330.64929	172.18810	69.80553	286.88788	790.01080	1040.53540	248.84142	583.58661	925.23688	111.98013	775.78503	591.36414	81.84348	784.75793	549.28223	86.18330	717.10120	572.14142	74.10400	734.02051	532.36200	79.18866	773.76923	506.24170	97.53796	714.17896	490.84073	204.65399	853.79724	473.37781	109.85172	880.51410	439.93454	100.74027	806.01276	432.88940	95.35992	840.35516	400.64282	91.94071	1030.99927	162.92352	162.01756	995.66766	140.56004	238.55806	1095.51526	131.32797	224.12825	901.06342	46.10951	260.50235	876.10040	69.03448	208.64352	914.98694	43.29338	141.27612
916	3.66000	774.20349	1027.35364	329.69519	519.66064	938.94385	409.96710	461.21429	610.43579	448.96948	436.87381	575.59644	443.79462	413.35712	640.41241	424.56866	396.49905	599.53253	420.97809	439.19406	532.90253	433.79938	420.50543	536.46979	277.59033	450.32956	437.03207	431.02014	433.10361	392.89993	429.39890	391.48538	453.64963	425.70001	384.34058	406.30646	419.83618	320.18500	93.43098	393.92215	313.52222	103.01720	296.02090	388.00745	73.96966	342.32407	165.03497	56.57402	400.28101	142.71002	93.00980	330.69867	171.45761	67.91269	286.75101	784.04138	1040.34717	248.66112	577.43872	925.05981	112.12421	768.69489	591.18951	80.86144	777.66565	549.14624	84.95144	709.96240	571.85809	72.96828	727.00073	532.14301	77.81851	766.70728	506.08652	96.22408	707.00757	490.36542	203.13667	846.56812	473.86505	108.84045	872.84619	440.95547	100.45337	799.63159	433.07791	94.16822	835.94055	402.92883	88.30098	1027.43359	165.69748	161.55020	991.97693	143.13689	238.17186	1092.22095	135.34520	223.94669	900.23560	45.99302	260.57388	874.74249	68.48814	208.63358	914.57501	43.50492	141.52457
917	3.66400	768.48199	1027.92859	329.44855	513.70996	939.49170	409.96594	455.59579	611.07660	449.30237	431.36050	576.08679	444.40472	407.55670	640.81311	425.04221	390.81946	599.88019	421.60876	433.36188	533.73834	434.53448	414.71127	537.19354	278.30527	445.45386	437.85178	431.57224	428.79062	393.67203	429.92764	386.55347	453.93961	426.32864	379.87918	406.57358	420.41803	319.16348	93.18360	393.79874	312.51044	102.81448	296.31201	387.40836	74.27921	342.39697	164.33578	54.74718	400.19543	141.70995	91.19298	330.67035	170.71939	66.20649	286.73273	778.21954	1040.32532	248.32759	571.27454	924.94861	112.34578	761.31445	591.02155	79.80958	770.26593	548.97809	83.71309	702.57001	571.70227	71.79975	719.62476	531.94464	76.46524	759.31201	505.92038	94.80212	699.45935	489.88699	201.60097	839.72723	474.82999	107.33041	866.39532	442.27945	99.06657	792.86322	433.31277	92.89028	829.55133	403.54739	87.13206	1023.50452	168.62460	160.85953	988.10120	145.57629	237.84836	1088.74207	139.98625	223.59236	898.82471	45.77634	260.43588	873.32031	67.99335	208.49136	914.08441	43.65247	141.74683
918	3.66800	762.84167	1028.71228	329.02286	0.00000	0.00000	0.00000	449.94604	611.87384	449.71158	426.12289	576.79919	445.56158	401.90930	641.55438	425.57983	385.18585	600.62439	422.34952	427.49561	534.65454	435.41278	408.99625	538.08710	279.20477	440.52640	438.76285	432.32178	424.50204	394.54221	430.59341	381.56418	454.37100	427.01950	375.41846	406.90146	421.04755	318.26630	93.03563	393.70090	311.62180	102.68468	296.52527	386.83429	74.63437	342.44235	163.73183	53.30894	400.12933	141.76634	89.97375	330.38434	169.31317	64.93480	286.47217	772.32422	1040.39172	247.83667	565.06512	925.00299	112.60152	753.68817	590.88892	78.66536	762.57928	548.82037	82.40762	694.93036	571.58679	70.42795	711.94800	531.78430	75.02013	751.56927	505.71439	93.36208	691.69012	489.46173	199.97105	832.13159	475.64249	105.89494	858.75128	443.10211	97.83114	785.71320	433.54660	91.54651	822.74756	404.18982	85.82506	1018.95764	171.45827	160.16530	983.79578	148.36728	237.16792	1084.97302	145.10585	223.16608	897.59882	45.86468	260.24884	871.68188	67.28751	208.17178	913.44092	43.74115	141.77762
